<?xml version="1.0" standalone="no"?><!DOCTYPE svg PUBLIC "-//W3C//DTD SVG 1.1//EN" "http://www.w3.org/Graphics/SVG/1.1/DTD/svg11.dtd"><svg t="1607405574610" class="icon" viewBox="0 0 1024 1024" version="1.1" xmlns="http://www.w3.org/2000/svg" p-id="3165" xmlns:xlink="http://www.w3.org/1999/xlink" width="64" height="64"><defs><style type="text/css"></style></defs><path d="M435.2 684.8c-6.4 0-12.8 0-19.2-6.4L268.8 537.6C256 524.8 249.6 505.6 262.4 492.8c12.8-12.8 32-12.8 44.8 0l147.2 140.8c12.8 12.8 12.8 32 0 44.8C454.4 684.8 448 684.8 435.2 684.8z" p-id="3166"></path><path d="M435.2 684.8c-6.4 0-19.2-6.4-25.6-12.8-12.8-12.8-12.8-32 0-44.8l300.8-281.6c12.8-12.8 32-12.8 44.8 0 12.8 12.8 12.8 32 0 44.8l-300.8 281.6C454.4 684.8 448 684.8 435.2 684.8z" p-id="3167"></path><path d="M512 1024c-281.6 0-512-230.4-512-512s230.4-512 512-512 512 230.4 512 512S793.6 1024 512 1024zM512 64C262.4 64 64 262.4 64 512s198.4 448 448 448 448-198.4 448-448S761.6 64 512 64z" p-id="3168"></path></svg>