<?xml version="1.0" standalone="no"?><!DOCTYPE svg PUBLIC "-//W3C//DTD SVG 1.1//EN" "http://www.w3.org/Graphics/SVG/1.1/DTD/svg11.dtd"><svg t="1604906173657" class="icon" viewBox="0 0 1024 1024" version="1.1" xmlns="http://www.w3.org/2000/svg" p-id="2927" xmlns:xlink="http://www.w3.org/1999/xlink" width="64" height="64"><defs><style type="text/css"></style></defs><path d="M682.667 128c-64 0-104.406 16.128-170.667 67.755C445.013 142.549 405.333 128 341.333 128c-128 0-256 97.877-256 256 0 256 341.334 512 426.667 512s426.667-256 426.667-512c0-158.123-128-256-256-256z m0 85.333c93.269 0 170.666 71.339 170.666 170.667 0 88.277-58.794 194.133-156.33 291.67-41.387 41.386-86.87 78.08-128.171 104.32A398.933 398.933 0 0 1 512 810.666a398.933 398.933 0 0 1-56.832-30.678c-41.301-26.24-86.784-62.976-128.17-104.32C229.46 578.133 170.666 472.277 170.666 384c0-99.328 77.397-170.667 170.666-170.667 44.758 0 66.134 8.363 117.59 49.238a85.333 85.333 0 0 0 105.557 0.512c52.267-40.79 74.837-49.75 118.187-49.75z" p-id="2928"></path></svg>