<?xml version="1.0" standalone="no"?><!DOCTYPE svg PUBLIC "-//W3C//DTD SVG 1.1//EN" "http://www.w3.org/Graphics/SVG/1.1/DTD/svg11.dtd"><svg t="1606461604380" class="icon" viewBox="0 0 1024 1024" version="1.1" xmlns="http://www.w3.org/2000/svg" p-id="1289" xmlns:xlink="http://www.w3.org/1999/xlink" width="64" height="64"><defs><style type="text/css"></style></defs><path d="M512 307.2c19.2-25.6 38.4-44.8 61.866667-59.733333 23.466667-12.8 46.933333-21.333333 68.266666-21.333334 23.466667 0 44.8 2.133333 68.266667 10.666667 21.333333 8.533333 42.666667 21.333333 57.6 36.266667 17.066667 14.933333 29.866667 34.133333 40.533333 57.6 10.666667 21.333333 14.933333 44.8 14.933334 70.4 0 21.333333-6.4 44.8-19.2 66.133333-12.8 23.466667-29.866667 46.933333-53.333334 70.4s-46.933333 49.066667-72.533333 72.533333-53.333333 53.333333-85.333333 87.466667c-32 34.133333-59.733333 66.133333-83.2 98.133333-23.466667-32-51.2-66.133333-83.2-98.133333-32-34.133333-59.733333-61.866667-85.333334-87.466667-25.6-23.466667-49.066667-49.066667-72.533333-72.533333s-40.533333-46.933333-53.333333-70.4c-12.8-23.466667-19.2-44.8-19.2-66.133333 0-23.466667 4.266667-46.933333 14.933333-70.4 10.666667-21.333333 23.466667-40.533333 40.533333-57.6 17.066667-14.933333 36.266667-27.733333 59.733334-36.266667 21.333333-8.533333 44.8-12.8 68.266666-10.666667 23.466667 0 44.8 8.533333 68.266667 21.333334 27.733333 14.933333 46.933333 34.133333 64 59.733333z" p-id="1290"></path></svg>