<?xml version="1.0" standalone="no"?><!DOCTYPE svg PUBLIC "-//W3C//DTD SVG 1.1//EN" "http://www.w3.org/Graphics/SVG/1.1/DTD/svg11.dtd"><svg t="1603355031601" class="icon" viewBox="0 0 1024 1024" version="1.1" xmlns="http://www.w3.org/2000/svg" p-id="1263" width="64" height="64" xmlns:xlink="http://www.w3.org/1999/xlink"><defs><style type="text/css"></style></defs><path d="M300.23241 372.668675l-97.113805 194.223516 0 33.332153 64.203254 64.202231L361.998149 664.426575l64.809051-64.807005 0-31.968086-97.493451-194.98281L300.23241 372.668675zM301.435819 579.893296l-75.737962 0 75.737962-151.47183L301.435819 579.893296zM327.446215 579.893296 327.446215 427.097308l76.401064 152.794965L327.446215 579.892273z" p-id="1264" ></path><path d="M690.909228 372.668675l-97.114828 194.223516 0 33.332153 64.203254 64.202231 94.678336 0 64.807005-64.807005 0-31.968086-97.492428-194.98281L690.909228 372.668675zM692.113659 579.893296l-75.737962 0 75.737962-151.47183L692.113659 579.893296zM718.124056 579.893296 718.124056 427.097308l76.400041 152.794965L718.124056 579.892273z" p-id="1265"></path><path d="M830.491263 64.068178 189.705108 64.068178c-69.505004 0-126.051881 56.545854-126.051881 126.051881l0 640.788202c0 69.505004 56.546877 126.051881 126.051881 126.051881l192.846146 0 0-84.533278L189.705108 872.426863c-22.893406 0-41.517579-18.626219-41.517579-41.517579L148.187529 190.120059c0-22.892383 18.624173-41.517579 41.517579-41.517579l640.786155 0c22.893406 0 41.517579 18.625196 41.517579 41.517579l0 640.788202c0 22.89136-18.624173 41.517579-41.517579 41.517579L551.909453 872.425839 551.909453 390.44555l223.609801-112.066355 0-47.759747-93.375667 0-171.686221 86.042655-171.686221-86.042655-94.555539 0 0 47.169299 223.161592 111.839181-0.290619 567.330166 363.40673 0c69.50705 0 126.051881-56.546877 126.051881-126.051881L956.54519 190.120059C956.543144 120.614032 899.998313 64.068178 830.491263 64.068178z" p-id="1266"></path></svg>