<?xml version="1.0" standalone="no"?><!DOCTYPE svg PUBLIC "-//W3C//DTD SVG 1.1//EN" "http://www.w3.org/Graphics/SVG/1.1/DTD/svg11.dtd"><svg t="1603431751258" class="icon" viewBox="0 0 1028 1024" version="1.1" xmlns="http://www.w3.org/2000/svg" p-id="13526" xmlns:xlink="http://www.w3.org/1999/xlink" width="64.25" height="64"><defs><style type="text/css"></style></defs><path d="M1024.9216 532.992c-0.12288-0.28672-0.06144-0.6144-0.2048-0.88064l-95.98976-191.6928a32.057344 32.057344 0 0 0-28.63104-17.65376h-192a31.9488 31.9488 0 1 0 0 63.8976H772.096v159.744a31.95904 31.95904 0 0 0 31.98976 31.9488h160.01024v159.744h-49.5616c-0.36864-0.65536-0.86016-1.20832-1.24928-1.86368-2.1504-3.52256-4.4032-6.94272-6.88128-10.24-1.86368-2.51904-3.93216-4.87424-5.98016-7.24992a128.282624 128.282624 0 0 0-11.96032-12.10368c-2.92864-2.62144-5.91872-5.16096-9.09312-7.49568a137.4208 137.4208 0 0 0-8.13056-5.46816 130.42688 130.42688 0 0 0-12.77952-6.94272c-2.47808-1.16736-4.89472-2.3552-7.43424-3.35872a126.418944 126.418944 0 0 0-18.00192-5.59104c-2.12992-0.49152-4.23936-0.94208-6.41024-1.31072a112.76288 112.76288 0 0 0-45.056 0c-2.1504 0.36864-4.23936 0.8192-6.3488 1.29024a126.464 126.464 0 0 0-18.24768 5.67296c-2.37568 0.94208-4.64896 2.06848-6.98368 3.1744a129.32096 129.32096 0 0 0-13.14816 7.12704c-2.72384 1.69984-5.34528 3.46112-7.92576 5.3248-3.29728 2.43712-6.43072 5.09952-9.50272 7.84384a126.703616 126.703616 0 0 0-11.40736 11.5712c-2.1504 2.49856-4.3008 4.9152-6.2464 7.5776-2.4576 3.2768-4.68992 6.656-6.84032 10.17856-0.38912 0.63488-0.88064 1.20832-1.24928 1.86368h-49.5616V163.0208A31.95904 31.95904 0 0 0 612.10624 131.072H98.304C46.3872 131.072 4.096 174.05952 4.096 226.9184a95.461376 95.461376 0 0 0 70.81984 92.48768 96.739328 96.739328 0 0 0-6.81984 35.30752c0 52.85888 42.2912 95.8464 94.208 95.8464h7.5776a96.131072 96.131072 0 0 0-5.79584 31.9488c0 52.85888 42.2912 95.8464 94.22848 95.8464h161.77152a31.9488 31.9488 0 1 0 0-63.8976h-161.77152c-16.65024 0-30.208-14.31552-30.208-31.9488S241.664 450.56 258.31424 450.56h124.43648a31.9488 31.9488 0 1 0 0-63.8976H162.304c-16.65024 0-30.208-14.31552-30.208-31.9488s13.55776-31.9488 30.208-31.9488h124.45696a31.9488 31.9488 0 1 0 0-63.8976H98.304c-16.65024 0-30.208-14.31552-30.208-31.9488S81.65376 194.9696 98.304 194.9696h481.792v543.1296H338.28864a126.963712 126.963712 0 0 0-220.38528 0H36.08576a31.9488 31.9488 0 1 0 0 63.8976h64.02048a128 128 0 0 0 256 0h319.97952a128 128 0 0 0 256 0h64.02048A31.95904 31.95904 0 0 0 1028.096 770.048V546.4064a31.377408 31.377408 0 0 0-3.1744-13.4144zM228.10624 865.8944a63.8976 63.8976 0 1 1 63.97952-63.8976 64.045056 64.045056 0 0 1-63.97952 63.8976z m575.97952 0a63.197184 63.197184 0 0 1-60.23168-84.64384c0.06144-0.18432 0.2048-0.3072 0.26624-0.49152a64.124928 64.124928 0 0 1 39.28064-38.93248c0.98304-0.32768 1.96608-0.6144 2.94912-0.9216a57.452544 57.452544 0 0 1 35.5328 0.02048c0.96256 0.28672 1.92512 0.55296 2.8672 0.88064a64.253952 64.253952 0 0 1 39.3216 38.97344c0.06144 0.18432 0.2048 0.34816 0.26624 0.53248a62.464 62.464 0 0 1 3.76832 20.6848 64.045056 64.045056 0 0 1-64.02048 63.8976z m76.22656-479.232l64 127.7952h-108.21632v-127.7952h44.21632z" p-id="13527"></path></svg>