<?xml version="1.0" standalone="no"?><!DOCTYPE svg PUBLIC "-//W3C//DTD SVG 1.1//EN" "http://www.w3.org/Graphics/SVG/1.1/DTD/svg11.dtd"><svg t="1603431325271" class="icon" viewBox="0 0 1045 1024" version="1.1" xmlns="http://www.w3.org/2000/svg" p-id="8171" xmlns:xlink="http://www.w3.org/1999/xlink" width="65.3125" height="64"><defs><style type="text/css"></style></defs><path d="M737.20892 1024H63.85511c-11.222563-4.208461-65.23115-28.056409-63.82833-70.141022s40.681793-56.814228 77.155124-70.141022V107.256845a70.141022 70.141022 0 0 1 70.141022-70.141022h479.764589c23.847947 0 70.141022 12.625384 70.141022 70.141022v237.778064a15.431025 15.431025 0 0 0 9.118333 5.611282H786.307635a120.642558 120.642558 0 0 1 97.49602 125.552429v310.724726c3.507051 5.611282 10.521153 13.326794 16.132435 14.028205s11.222563-3.507051 21.042307-15.431025V338.020807h-95.39179c-4.208461 0-44.890254-27.354999-42.786023-63.12692 0-21.743717 16.132435-39.278972 44.890254-53.307177h6.312692L841.719042 215.274019a70.141022 70.141022 0 0 0 37.876152 0s0-11.923974-25.952178-42.084614l-58.918458-81.363585a70.141022 70.141022 0 0 1 0-70.141022 70.141022 70.141022 0 0 1 70.141021-18.938076h7.014103l169.039862 169.039863v651.610093A210.423065 210.423065 0 0 1 951.840446 916.684237h-126.253839a140.282044 140.282044 0 0 1-62.425509-93.287559V484.615542a50.501536 50.501536 0 0 0-63.12692 0v396.998184c28.757819 9.118333 80.662175 30.160639 87.676277 70.141022 4.208461 24.549358-10.521153 48.397305-44.188843 70.141021z m-661.429836-42.084613h648.804452c16.132435-11.923974 21.743717-20.340896 20.340896-24.549358s-39.980382-31.56346-70.141022-39.278972L657.248155 916.684237V467.080287l5.611282-6.312692 6.312692-6.312692a92.586149 92.586149 0 0 1 130.4623 6.312692l5.611282 6.312692v350.705109a96.0932 96.0932 0 0 0 37.876152 58.217048h93.988969a167.637042 167.637042 0 0 0 63.126919-63.12692V194.231712L852.941606 47.636976c-15.431025 0-23.146537 0-24.549358 3.507051a28.757819 28.757819 0 0 0 0 21.042307L885.206476 145.132997c20.340896 23.847947 46.293074 61.022689 29.459229 89.780508s-56.112817 24.549358-74.349483 22.445127-15.431025 11.923974-15.431025 14.028204 9.118333 16.132435 18.236666 21.743717h119.941147v502.209716l-3.507051 5.611282a70.141022 70.141022 0 0 1-62.42551 38.577562 70.141022 70.141022 0 0 1-52.605766-41.383203v-9.118333-317.037419a81.363585 81.363585 0 0 0-58.918458-84.169226h-77.856534a54.709997 54.709997 0 0 1-47.695895-43.487433V103.048384c0-25.250768-5.611282-30.160639-32.966281-32.26487S387.906631 74.991975 260.951382 74.991975H150.128567a31.56346 31.56346 0 0 0-21.743717 9.118333 31.56346 31.56346 0 0 0-9.118332 22.445127v805.92034l-14.028205 4.208462c-51.202946 17.535255-63.12692 32.96628-63.126919 37.174741s16.132435 20.340896 33.66769 28.056409z" p-id="8172"></path><path d="M570.974698 408.863239H204.137154A54.008587 54.008587 0 0 1 150.128567 355.556062V163.369662a54.008587 54.008587 0 0 1 54.008587-54.008586h366.837544a54.008587 54.008587 0 0 1 54.008587 54.008586V355.556062a54.008587 54.008587 0 0 1-54.008587 53.307177zM204.137154 151.445689a11.923974 11.923974 0 0 0-11.923974 11.923973V355.556062a11.923974 11.923974 0 0 0 11.923974 11.923974h366.837544A11.923974 11.923974 0 0 0 582.898672 355.556062V163.369662a11.923974 11.923974 0 0 0-11.923974-11.923973z" p-id="8173"></path></svg>